<svg version="1.1" id="Layer_1" xmlns="http://www.w3.org/2000/svg" xmlns:xlink="http://www.w3.org/1999/xlink" x="0px" y="0px"
	 width="100%" viewBox="0 0 387 387" enable-background="new 0 0 387 387" xml:space="preserve">
<path fill="#F4B706" opacity="1.000000" stroke="none" 
	d="
M261.000000,388.000000 
	C174.000031,388.000000 87.500053,388.000000 1.000058,388.000000 
	C1.000039,259.000061 1.000039,130.000122 1.000019,1.000144 
	C129.999893,1.000096 258.999786,1.000096 387.999756,1.000048 
	C387.999847,129.999863 387.999847,258.999725 387.999939,387.999786 
	C345.833344,388.000000 303.666656,388.000000 261.000000,388.000000 
M152.413940,63.978283 
	C134.851669,69.487373 119.175613,78.475418 106.322121,91.532082 
	C77.992310,120.309685 65.952408,155.119461 72.256592,195.066589 
	C76.188995,219.984711 90.280937,238.185394 115.074280,246.297287 
	C123.127953,248.932312 131.615509,250.241257 140.136307,252.210266 
	C140.085571,253.227844 140.189499,254.748016 139.910019,256.194092 
	C136.898712,271.774689 133.839355,287.346069 130.768112,302.915009 
	C128.051041,316.688568 133.499390,323.918030 147.422363,324.914917 
	C149.081696,325.033722 150.753586,324.997589 152.419662,324.998047 
	C172.917328,325.003601 193.423645,325.364349 213.909576,324.874634 
	C227.301086,324.554535 240.840805,324.034058 254.000061,321.774353 
	C278.932617,317.492981 297.600494,304.051117 306.828003,279.814545 
	C311.506561,267.526062 312.477509,254.791046 304.349487,243.223724 
	C298.028442,234.227966 288.546906,229.651123 277.323730,226.258041 
	C279.641724,225.208160 281.094696,224.577286 282.524750,223.898163 
	C298.065308,216.518143 310.331146,206.109695 315.387421,188.849335 
	C320.808563,170.343475 314.197479,152.875671 298.125610,143.976318 
	C289.190979,139.029037 279.252655,137.454987 269.341370,137.310867 
	C240.851242,136.896591 212.349228,136.851883 183.857742,137.176178 
	C170.397812,137.329361 162.044693,144.800781 159.040070,157.942032 
	C157.529984,164.546661 156.337021,171.224335 155.030640,177.874878 
	C152.211044,192.228912 149.410797,206.586761 146.605392,220.929062 
	C122.960281,216.880447 114.369659,200.565704 113.081482,182.669296 
	C111.985321,167.440613 115.020744,152.684418 120.013603,138.355591 
	C130.387390,108.584190 154.606354,86.559227 188.354095,87.999260 
	C203.942139,88.664421 216.015411,95.096962 223.272186,109.327454 
	C225.599121,113.890541 227.149567,118.935493 229.997635,123.118347 
	C232.084641,126.183449 235.332306,129.259460 238.726608,130.471939 
	C246.583511,133.278503 256.867126,129.225555 261.655945,122.317940 
	C267.719330,113.571892 266.345245,104.422302 262.530243,95.385925 
	C255.724304,79.265236 242.581223,69.968620 226.908493,64.124290 
	C202.485962,55.017200 177.795227,56.371403 152.413940,63.978283 
z"/>
<path fill="#FFFEFE" opacity="1.000000" stroke="none" 
	d="
M152.793915,63.848450 
	C177.795227,56.371403 202.485962,55.017200 226.908493,64.124290 
	C242.581223,69.968620 255.724304,79.265236 262.530243,95.385925 
	C266.345245,104.422302 267.719330,113.571892 261.655945,122.317940 
	C256.867126,129.225555 246.583511,133.278503 238.726608,130.471939 
	C235.332306,129.259460 232.084641,126.183449 229.997635,123.118347 
	C227.149567,118.935493 225.599121,113.890541 223.272186,109.327454 
	C216.015411,95.096962 203.942139,88.664421 188.354095,87.999260 
	C154.606354,86.559227 130.387390,108.584190 120.013603,138.355591 
	C115.020744,152.684418 111.985321,167.440613 113.081482,182.669296 
	C114.369659,200.565704 122.960281,216.880447 146.605392,220.929062 
	C149.410797,206.586761 152.211044,192.228912 155.030640,177.874878 
	C156.337021,171.224335 157.529984,164.546661 159.040070,157.942032 
	C162.044693,144.800781 170.397812,137.329361 183.857742,137.176178 
	C212.349228,136.851883 240.851242,136.896591 269.341370,137.310867 
	C279.252655,137.454987 289.190979,139.029037 298.125610,143.976318 
	C314.197479,152.875671 320.808563,170.343475 315.387421,188.849335 
	C310.331146,206.109695 298.065308,216.518143 282.524750,223.898163 
	C281.094696,224.577286 279.641724,225.208160 277.323730,226.258041 
	C288.546906,229.651123 298.028442,234.227966 304.349487,243.223724 
	C312.477509,254.791046 311.506561,267.526062 306.828003,279.814545 
	C297.600494,304.051117 278.932617,317.492981 254.000061,321.774353 
	C240.840805,324.034058 227.301086,324.554535 213.909576,324.874634 
	C193.423645,325.364349 172.917328,325.003601 152.419662,324.998047 
	C150.753586,324.997589 149.081696,325.033722 147.422363,324.914917 
	C133.499390,323.918030 128.051041,316.688568 130.768112,302.915009 
	C133.839355,287.346069 136.898712,271.774689 139.910019,256.194092 
	C140.189499,254.748016 140.085571,253.227844 140.136307,252.210266 
	C131.615509,250.241257 123.127953,248.932312 115.074280,246.297287 
	C90.280937,238.185394 76.188995,219.984711 72.256592,195.066589 
	C65.952408,155.119461 77.992310,120.309685 106.322121,91.532082 
	C119.175613,78.475418 134.851669,69.487373 152.793915,63.848450 
M187.854355,242.004944 
	C186.567612,243.048859 184.454636,243.887131 184.134918,245.171738 
	C182.626175,251.233795 181.616165,257.419586 180.413879,263.558411 
	C178.263992,274.535614 176.103745,285.510803 173.847687,296.996735 
	C187.350906,296.996735 200.483841,297.227234 213.603714,296.912872 
	C221.873169,296.714722 230.237885,296.348602 238.356079,294.908752 
	C252.095200,292.471985 262.654755,285.570557 266.632538,271.160645 
	C270.267059,257.994141 265.791748,249.065964 252.713425,245.130478 
	C246.783463,243.346039 240.439697,242.309570 234.250336,242.138580 
	C219.107941,241.720200 203.946182,242.003204 187.854355,242.004944 
M245.053116,213.974075 
	C251.973846,212.758835 258.681519,211.005341 264.101013,206.154327 
	C271.562714,199.475342 275.523987,191.196579 274.951324,181.100021 
	C274.542786,173.897385 268.751526,167.993240 258.691986,167.236847 
	C239.836502,165.819046 220.886002,165.634415 201.969681,165.142609 
	C201.004730,165.117523 199.402008,166.876678 199.102249,168.059937 
	C197.971359,172.523926 197.266144,177.095200 196.383957,181.622879 
	C194.247131,192.589859 192.100433,203.554901 189.929214,214.666565 
	C190.947968,214.808823 191.596832,214.988129 192.242310,214.976624 
	C209.550903,214.668106 226.859146,214.339951 245.053116,213.974075 
z"/>
<path fill="#F4B706" opacity="1.000000" stroke="none" 
	d="
M188.323273,242.004425 
	C203.946182,242.003204 219.107941,241.720200 234.250336,242.138580 
	C240.439697,242.309570 246.783463,243.346039 252.713425,245.130478 
	C265.791748,249.065964 270.267059,257.994141 266.632538,271.160645 
	C262.654755,285.570557 252.095200,292.471985 238.356079,294.908752 
	C230.237885,296.348602 221.873169,296.714722 213.603714,296.912872 
	C200.483841,297.227234 187.350906,296.996735 173.847687,296.996735 
	C176.103745,285.510803 178.263992,274.535614 180.413879,263.558411 
	C181.616165,257.419586 182.626175,251.233795 184.134918,245.171738 
	C184.454636,243.887131 186.567612,243.048859 188.323273,242.004425 
z"/>
<path fill="#F4B706" opacity="1.000000" stroke="none" 
	d="
M244.610291,213.994598 
	C226.859146,214.339951 209.550903,214.668106 192.242310,214.976624 
	C191.596832,214.988129 190.947968,214.808823 189.929214,214.666565 
	C192.100433,203.554901 194.247131,192.589859 196.383957,181.622879 
	C197.266144,177.095200 197.971359,172.523926 199.102249,168.059937 
	C199.402008,166.876678 201.004730,165.117523 201.969681,165.142609 
	C220.886002,165.634415 239.836502,165.819046 258.691986,167.236847 
	C268.751526,167.993240 274.542786,173.897385 274.951324,181.100021 
	C275.523987,191.196579 271.562714,199.475342 264.101013,206.154327 
	C258.681519,211.005341 251.973846,212.758835 244.610291,213.994598 
z"/>
</svg>