<?xml version="1.0"?><svg version="1.2" baseProfile="tiny-ps" viewBox="0 0 300 300" xmlns="http://www.w3.org/2000/svg" xmlns:xlink="http://www.w3.org/1999/xlink"><title>Logo CB</title><g><g fill="#fff" transform="matrix(.1 0 0 -.1 0 300)"><path d="M0 1500V0h3000v3000H0V1500z"/></g><g fill="#fde7d1" transform="matrix(.1 0 0 -.1 0 300)"><path d="M0 1500V0h3000v3000H0V1500zm1669 1030c41-10 103-33 137-50l63-31 57-52 57-52 29-60 28-60v-57c0-31-4-68-10-82l-9-25-42-31-42-30h-116l-21 28c-12 15-35 55-51 90-53 117-111 171-212 198l-52 14h-57c-78 0-151-17-228-53l-64-30-66-66-65-66-35-65c-41-77-53-108-82-215l-22-80v-115l-1-115 33-67 33-67 37-31 37-30 54-21c30-11 58-18 64-16l11 3 52 262 52 261 21 35 22 35 37 23 37 23h820l69-25 70-25 46-45 47-46 21-57 22-58v-32c-1-46-17-111-42-165l-22-47-56-55-56-55-67-33-68-33 6-10c4-5 13-9 21-9 20 0 91-37 132-68l33-25 27-46 27-46v-92l-1-92-38-76-39-76-64-59-64-60-47-24c-62-31-130-52-222-68l-75-13h-740l-35 21-35 20-12 37-13 37 35 178c19 97 39 197 44 222 5 24 7 48 5 52-3 5-24 8-47 8h-42l-67 19c-37 11-94 34-128 52l-61 32-50 55c-55 61-87 117-119 213l-22 63v251l22 85c27 111 46 160 93 245 125 228 337 385 600 445l82 18 125 1 125 1 74-20zm-144-842c-4-23-20-108-36-188s-29-149-29-153v-9l238 4 237 4 43 18 42 18 43 48 43 48 12 40c7 21 12 52 12 68v29l-18 34-18 34-50 20-49 21-231 4-232 4-7-44zm-108-565c-3-10-13-58-22-108-9-49-23-117-30-150-8-33-17-84-21-112l-7-53h428l66 14c115 25 190 78 223 158l16 37v102l-14 28c-18 33-44 52-111 76l-50 18-237 5-236 4-5-19z"/></g><g fill="#fad492" transform="matrix(.1 0 0 -.1 0 300)"><path d="M0 1500V0h3000v3000H0V1500zm1578 1050 82-11 72-24 72-25 68-46 68-46 29-37c15-20 39-56 51-81l24-45v-65l1-65-23-37-23-37-45-22-45-21-41 5-40 5-23 22c-12 12-41 58-63 104l-39 82-52 46-51 46-71 17-71 18-67-7c-76-7-140-25-202-57l-44-22-76-76-76-76-36-75-36-76-27-99-26-98 4-121 4-121 26-51 27-51 44-39 45-39 53-17c29-10 54-16 56-14 4 3 60 276 74 361 5 33 17 87 25 120l16 60 25 34 26 33 44 20 44 19 407-3 407-3 59-24 60-24 48-45 47-44 21-54 20-55v-96l-19-55c-38-110-115-197-226-252l-58-30 68-32 67-32 34-33c19-18 44-53 55-77l21-43-4-87-4-87-33-68-33-68-56-58-57-58-49-28c-27-16-74-37-105-47l-56-19-115-15-114-14h-641l-38 11-37 10-20 21-20 22-6 31-6 32 41 209c23 115 41 214 41 220v12l-47 6c-249 35-397 156-469 381l-19 60v250l18 75c87 352 308 591 634 685 143 42 248 51 381 35zm-42-832c-2-7-14-65-26-128-25-135-40-208-47-232l-4-18h376l65 11 65 10 42 24 41 25 31 41 30 42 12 55 13 55-20 36-19 36-35 17c-19 9-64 22-100 27l-65 11h-356l-3-12zm-129-660c-28-134-67-336-67-347v-11h198l197 1 77 13 77 14 53 29 53 28 31 47 32 47 6 45 7 45-7 35-6 36-34 30-34 29-52 16-52 15h-464l-15-72z"/></g><g fill="#f7c045" transform="matrix(.1 0 0 -.1 0 300)"><path d="M0 1500V0h3000v3000H0V1500zm1631 1044 84-16 83-38 83-39 62-63 63-63 22-58 22-59v-103l-25-38-26-37-41-21-42-21-47 4-48 5-17 14c-9 7-37 55-62 107l-45 93-44 39-45 39-50 17-50 16-106-4-107-4-80-38-80-39-67-68-67-68-40-83c-21-46-50-119-62-163l-23-80v-130l-1-130 28-57 28-57 41-35 40-35 46-15c25-9 51-16 58-16h12l10 48c6 26 20 99 32 162s31 158 41 209l20 95 22 39 22 39 45 26 45 27h780l63-17c35-10 84-30 109-45l45-26 33-46 34-46 12-43 12-42-5-70-5-69-28-57-27-56-54-53-54-53-64-33-65-34 67-31 67-31 37-38c46-46 67-91 75-154l6-49-13-53c-7-30-24-79-39-109l-26-54-56-61-57-60-78-41-79-42-75-18-75-19h-822l-27 15-28 14-14 28c-8 15-14 41-14 58 0 30 32 204 66 362 8 37 14 72 14 77v11h-27c-45 0-178 37-240 66l-58 27-62 63-61 62-31 65c-17 35-38 95-47 133l-16 69 5 125 5 125 26 90c15 50 45 127 67 172l41 83 60 75 59 76 82 64 82 65 80 39c142 69 265 98 416 100l87 1 83-16zm-91-819c0-3-16-84-35-179-19-96-35-181-35-190v-16h329l77 11 78 11 39 20c47 24 82 60 108 110l19 37v102l-16 24-16 24-41 15c-23 9-71 20-107 26l-65 10h-167c-93 0-168-2-168-5zm-120-601c0-15-69-375-76-396l-6-20 254 4 253 4 57 22 57 23 44 49 43 48 13 55 12 55-7 28c-4 16-15 41-25 55l-18 26-53 24-53 23-247 4-248 4v-8z"/></g><g fill="#f4b706" transform="matrix(.1 0 0 -.1 0 300)"><path d="M0 1500V0h3000v3000H0V1500zm1710 1030c72-23 156-67 214-113l39-31 33-52 33-52 17-60 17-61-13-46-13-46-34-32c-38-37-60-45-124-46l-46-1-28 22-27 21-34 74-34 74-42 45c-23 25-59 54-79 65l-37 18-78 7-79 6-62-10-62-11-66-32-65-33-53-51c-121-115-193-285-213-505l-7-70 13-62c17-81 39-124 87-169 43-41 83-63 130-72l32-6 7 47c3 26 20 110 36 187s33 167 38 200c11 69 32 118 69 158l25 27 50 15 50 15h675l78-12 78-11 50-22 50-23 42-45c23-25 49-62 58-83l15-36v-164l-34-69-34-70-48-47-49-46-63-33-63-33 68-31 68-32 40-45 40-45 13-47c38-144-13-283-153-418l-40-39-68-35-68-35-92-20-92-21-355-5-356-6-54 12-55 12-27 26-28 27v115l20 98c11 54 27 130 35 168 9 39 15 82 15 97v26l-62 7-63 7-69 24-68 24-61 43-60 42-48 69c-27 38-49 74-49 81s-7 26-15 43c-9 17-23 70-31 119l-16 88 12 109 12 109 23 79c28 93 76 194 123 263 48 70 157 180 223 225 59 41 210 120 228 120 6 0 32 7 58 16s73 20 103 25l55 8 140-4 140-3 65-22zm-163-806c-2-5-10-36-17-69-6-33-20-100-30-150-10-49-21-107-25-129l-6-38 208 5 208 5 59 18 59 18 48 47 47 48 12 56 12 55-7 29-6 28-22 21-22 20-55 17-55 17-201 5-201 5-6-8zm-122-606c-3-7-12-51-20-98-9-47-20-107-25-135-5-27-15-79-24-114l-15-63 247 4 247 5 59 23 59 23 42 41 41 42 17 61 17 60-6 19c-3 11-11 32-16 47l-11 28-46 23-46 23-66 12-66 11h-384l-4-12z"/></g></g></svg>
